Patient4_TMGait_0pt8_01_right_16_EMG.mot
version=1
nRows=13
nColumns=33
inDegrees=no
endheader
time	1LAddLong	2LGlutMax	3LGlutMed	4LIliopsoas	5LSemiMemb	6LBicFemLong	7LRecFem	8LVastMed	9LVastLat	10LGasMed	11LTibAnt	12lTibPost	13LPeroneusLong	14LSol	15LExtDigLong	16LFlexDigLong	17RAddLong	18RGlutMax	19RGlutMed	20RIliopsoas	21RSemiMemb	22RBicFemLong	23RRecFem	24RVastMed	25RVastLat	26RGasMed	27RTibAnt	28RTibPost	29RPeroneusLong	30RSol	31RExtDigLong	32RFlexDigLong
18.905	-0.000458	0.37811	-0.040741	-0.001678	0.028381	0.005341	0.097656	0.002289	0.036469	-0.35492	-0.039368	0.001221	0.045776	-0.029297	-0.18402	-0.001984	0.005951	0.086212	0.15762	0.055084	-0.10864	0.16129	-0.04776	-0.075836	0.001831	-0.014648	-0.22598	-0.004272	-0.15533	-0.00885	0	0.014343
18.906	-0.00061	0.32547	-0.029297	0.032959	0.049591	-0.01709	0.14435	0.003052	0.04715	-0.4834	-0.013733	0.001678	-0.1535	-0.058289	-0.01358	-0.015106	0.036469	0.11475	0.18936	0.007629	-0.24353	0.047913	-0.041656	-0.12955	0.00061	-0.010986	-0.27924	-0.001068	-0.093842	-0.020447	-0.004425	0.013123
18.907	-0.004272	0.29495	-0.031433	0.016632	0.045013	0.023346	0.17136	0.006866	0.004272	-0.18845	-0.007782	-0.001221	-0.081177	-0.008392	-0.011139	-0.011597	0.06424	0.057068	0.58029	-0.028687	-0.29709	-0.043945	-0.033875	-0.15182	0.006866	-0.02182	-0.24826	0.000153	-0.054169	-0.066986	0.001221	0.018311
18.908	-0.006409	0.26215	0.011749	0.016327	-0.035553	0.029602	0.21255	0.008087	-0.028839	0.28397	-0.029907	-0.006409	0.1416	-0.10757	-0.030823	-0.011902	0.068054	0.009613	0.64102	0.010071	-0.19028	-0.080414	-0.048523	-0.19852	0.02121	-0.013885	-0.10254	-0.00061	-0.041046	-0.049744	-0.002899	0.027313
18.909	0.000305	0.23682	0.043793	0.007172	-0.1004	-0.062408	0.17319	0.008545	-0.092316	0.12436	-0.03952	-0.003357	0.1889	-0.20523	-0.000305	0.00473	0.036316	-0.003052	0.66116	0.089264	0.25971	-0.010071	-0.039368	-0.15366	0.027008	-0.017853	-0.046692	0.000153	-0.067291	-0.023193	-0.001526	0.019073
18.91	0.008698	0.21194	0.13489	0.004272	-0.09079	-0.11948	0.15671	0.011902	-0.13611	0.094299	-0.049286	0.001373	0.21225	-0.20187	0.087585	0.018463	-0.010376	-0.021057	0.62027	0.081787	0.1207	0.047607	-0.067139	-0.15656	0.022125	-0.0177	-0.037384	0.001526	-0.10208	-0.046234	0.011292	0.020447
18.911	0.026703	0.22766	0.11749	-0.01236	0.086212	-0.1294	0.12604	0.016174	-0.22369	0.19592	-0.027008	0.006866	0.11414	-0.14267	0.10574	-0.003967	-0.076447	-0.01236	0.51102	0.005188	-0.002899	0.15839	-0.1091	0.005798	0.046692	-0.018005	0.014191	-0.005646	-0.24811	-0.099487	-0.001221	0.02182
18.912	0.032349	0.23682	0.037689	-0.011444	0.13214	-0.10513	0.082397	0.013428	-0.23895	0.20813	0.000305	0.014801	0.57449	-0.13458	0.16113	-0.011139	-0.06424	0.021362	0.068817	0.0383	0.21988	0.18219	-0.112	0.014191	0.027466	-0.021057	0.07019	-0.002136	0.046082	-0.10223	0.000763	0.025787
18.913	0.028229	0.17853	-0.03891	0.004883	0.071564	-0.016785	0.023956	0.008545	-0.21622	0.14114	0.027313	0.015411	0.28564	-0.070038	0.18158	-0.03006	-0.039673	0.030365	0.22827	-0.021667	0.15579	0.15411	-0.08667	0.000153	0.016632	-0.021515	0.069885	0.003815	0.42954	-0.10498	0	0.026093
18.914	0.024719	0.17517	0.049896	0.013275	0.05661	-0.001221	-0.040131	0.002136	-0.091553	0.12833	0.005035	0.00885	-0.14877	0.1503	0.19134	0.001526	-0.033264	0.028381	0.22934	-0.049591	-0.031128	0.12878	-0.056458	-0.059509	0.017242	-0.017853	0.097046	-0.00061	0.84869	-0.096893	-0.001068	0.020294
18.915	0.017242	0.17319	0.083923	0.02182	0.068512	0.009918	0.040588	0.004425	0.04715	0.009918	0.020752	0.013733	-0.20493	0.12207	0.035706	0.024261	-0.027618	0.047302	0.466	-0.036316	-0.025635	0.090332	-0.055847	-0.046082	0.015411	-0.015869	0.1471	0.003967	0.14099	-0.090485	-0.001831	0.022736
18.916	0.00946	0.15182	0.048523	0.033722	0.049438	0.031891	0.075989	0.000763	0.17807	-0.083008	0.011749	0.006714	-0.051575	0.16541	-0.016632	-0.015564	0.00412	0.035095	0.61371	-0.038605	-0.029602	0.089417	-0.05722	-0.026398	0.024872	-0.013275	0.14694	0.006409	-0.5513	-0.050049	0.00061	0.019531
18.917	0.01297	0.1474	0.055695	-0.003357	0.031281	0.027466	0.092468	-0.010986	0.2565	0.12299	0.018921	0.013123	-0.13168	0.17731	0.030212	-0.21057	0.022736	0.054474	0.60379	-0.099487	0.007935	0.11719	-0.054626	-0.042419	0.026398	-0.018768	-0.12268	0	-0.15656	0.023651	-0.001831	0.016174
